<svg width="380" height="222" viewBox="0 0 490 222" fill="none" xmlns="http://www.w3.org/2000/svg">
<rect x="109.836" y="113.285" width="255.518" height="93.6318" rx="4.37532" transform="rotate(3.30727 109.836 113.285)" fill="#015C28"/>
<path d="M138.18 143.251L152.857 144.1C154.464 144.192 155.952 144.541 157.319 145.146C158.689 145.716 159.854 146.485 160.815 147.452C161.813 148.386 162.574 149.464 163.1 150.687C163.625 151.909 163.848 153.202 163.77 154.565C163.654 156.557 163.068 158.206 162.011 159.512C160.991 160.785 159.744 161.73 158.271 162.346L158.247 162.765C160.128 163.575 161.602 164.765 162.669 166.334C163.772 167.871 164.26 169.739 164.133 171.941C164.04 173.548 163.624 174.979 162.885 176.234C162.184 177.456 161.248 178.488 160.077 179.332C158.906 180.176 157.555 180.799 156.024 181.202C154.529 181.606 152.924 181.759 151.212 181.66L136.011 180.782L138.18 143.251ZM151.448 159.375C153.091 159.47 154.374 159.106 155.298 158.283C156.259 157.427 156.775 156.387 156.845 155.164C156.916 153.941 156.54 152.867 155.717 151.943C154.894 151.019 153.713 150.513 152.176 150.424L144.89 150.003L144.372 158.966L151.448 159.375ZM151.326 175.145C153.108 175.248 154.496 174.89 155.49 174.071C156.486 173.217 157.024 172.091 157.105 170.693C157.186 169.296 156.763 168.114 155.837 167.149C154.948 166.151 153.56 165.598 151.673 165.488L144.021 165.046L143.463 174.691L151.326 175.145ZM181.831 156.818C183.823 156.933 185.62 157.388 187.222 158.181C188.861 158.942 190.239 159.969 191.356 161.26C192.511 162.519 193.371 164.006 193.938 165.722C194.54 167.44 194.784 169.294 194.669 171.286C194.554 173.278 194.098 175.093 193.302 176.729C192.541 178.368 191.514 179.764 190.22 180.916C188.964 182.036 187.476 182.897 185.759 183.499C184.078 184.068 182.242 184.295 180.25 184.179C178.258 184.064 176.443 183.626 174.804 182.865C173.202 182.072 171.824 181.045 170.669 179.787C169.552 178.495 168.692 176.99 168.09 175.273C167.523 173.557 167.297 171.703 167.412 169.711C167.527 167.719 167.965 165.904 168.726 164.265C169.522 162.628 170.548 161.25 171.805 160.131C173.099 158.978 174.586 158.117 176.267 157.548C177.984 156.946 179.839 156.703 181.831 156.818ZM180.616 177.837C181.49 177.888 182.338 177.779 183.16 177.511C184.018 177.21 184.781 176.763 185.446 176.17C186.111 175.578 186.645 174.837 187.047 173.949C187.484 173.062 187.736 172.043 187.802 170.89C187.869 169.736 187.736 168.694 187.404 167.764C187.107 166.835 186.663 166.038 186.07 165.373C185.477 164.707 184.771 164.193 183.95 163.83C183.167 163.434 182.338 163.211 181.465 163.16C180.556 163.108 179.69 163.233 178.866 163.536C178.044 163.804 177.3 164.235 176.635 164.827C175.97 165.42 175.418 166.159 174.982 167.046C174.58 167.934 174.345 168.955 174.279 170.108C174.212 171.261 174.327 172.302 174.624 173.231C174.956 174.162 175.418 174.96 176.011 175.625C176.604 176.29 177.292 176.821 178.075 177.217C178.861 177.578 179.708 177.785 180.616 177.837ZM216.046 182.041L215.626 182.016C214.748 183.263 213.605 184.231 212.198 184.921C210.793 185.576 209.216 185.853 207.469 185.752C204.219 185.565 201.848 184.428 200.356 182.344C198.899 180.261 198.266 177.56 198.458 174.24L199.357 158.672L206.224 159.069L205.373 173.798C205.266 175.65 205.588 177.054 206.339 178.009C207.127 178.931 208.307 179.437 209.88 179.528C210.823 179.583 211.656 179.438 212.377 179.094C213.135 178.717 213.778 178.211 214.305 177.575C214.87 176.906 215.301 176.125 215.598 175.23C215.932 174.303 216.129 173.315 216.19 172.267L216.917 159.687L223.783 160.084L222.299 185.768L215.852 185.395L216.046 182.041ZM235.919 164.151L236.338 164.175C237.216 162.929 238.358 161.978 239.763 161.323C241.171 160.633 242.748 160.338 244.495 160.439C246.103 160.532 247.503 160.876 248.695 161.471C249.888 162.066 250.841 162.875 251.553 163.897C252.302 164.887 252.83 166.075 253.135 167.46C253.478 168.812 253.602 170.309 253.507 171.952L252.607 187.519L245.741 187.122L246.592 172.393C246.699 170.541 246.358 169.154 245.57 168.232C244.819 167.277 243.657 166.754 242.084 166.664C241.141 166.609 240.29 166.77 239.532 167.147C238.811 167.491 238.168 167.997 237.604 168.666C237.076 169.302 236.645 170.083 236.311 171.011C236.014 171.905 235.835 172.876 235.775 173.925L235.048 186.505L228.181 186.108L229.665 160.424L236.113 160.796L235.919 164.151ZM260.924 168.12L256.416 167.86L256.756 161.989L261.263 162.25L261.718 154.387L268.584 154.784L268.13 162.647L274.42 163.01L274.081 168.881L267.791 168.517L267.215 178.476C267.181 179.07 267.201 179.632 267.275 180.163C267.387 180.66 267.607 181.093 267.937 181.463C268.394 182.05 269.076 182.37 269.985 182.423C270.579 182.457 271.054 182.432 271.409 182.347C271.767 182.228 272.109 182.072 272.435 181.881L274.026 188.021C273.2 188.359 272.311 188.588 271.357 188.708C270.436 188.865 269.417 188.911 268.299 188.847C267.006 188.772 265.846 188.512 264.82 188.067C263.831 187.589 263.007 186.981 262.349 186.242C260.797 184.574 260.105 182.29 260.273 179.39L260.924 168.12ZM283.768 159.816C283.174 159.782 282.604 159.644 282.057 159.402C281.547 159.127 281.093 158.785 280.696 158.377C280.336 157.935 280.049 157.445 279.834 156.907C279.655 156.37 279.584 155.788 279.62 155.159C279.656 154.53 279.794 153.959 280.034 153.447C280.309 152.937 280.65 152.501 281.057 152.139C281.5 151.744 281.99 151.457 282.526 151.277C283.1 151.065 283.683 150.976 284.277 151.01C285.5 151.081 286.523 151.578 287.347 152.502C288.172 153.392 288.549 154.448 288.478 155.671C288.408 156.894 287.91 157.917 286.986 158.74C286.064 159.528 284.992 159.887 283.768 159.816ZM278.662 189.025L280.146 163.341L287.013 163.738L285.529 189.422L278.662 189.025ZM293.082 164.088L299.529 164.461L299.351 167.554L299.77 167.578C300.462 166.531 301.494 165.661 302.866 164.969C304.238 164.277 305.903 163.988 307.86 164.101C309.502 164.196 311.037 164.635 312.464 165.419C313.928 166.17 315.184 167.189 316.232 168.476C317.316 169.731 318.142 171.216 318.709 172.932C319.276 174.648 319.502 176.502 319.387 178.493C319.272 180.485 318.834 182.301 318.073 183.94C317.312 185.579 316.32 186.976 315.096 188.133C313.909 189.256 312.544 190.124 311.001 190.736C309.495 191.315 307.921 191.557 306.278 191.462C304.322 191.349 302.701 190.87 301.418 190.024C300.135 189.179 299.21 188.196 298.643 187.077L298.224 187.052L298.431 190.746L297.81 201.491L290.944 201.094L293.082 164.088ZM305.23 185.038C306.138 185.091 307.005 184.965 307.828 184.662C308.687 184.361 309.449 183.915 310.115 183.322C310.78 182.729 311.331 181.99 311.768 181.103C312.205 180.217 312.456 179.215 312.52 178.097C312.585 176.978 312.451 175.954 312.119 175.023C311.788 174.092 311.325 173.294 310.733 172.629C310.14 171.964 309.434 171.432 308.616 171.034C307.832 170.638 306.986 170.414 306.078 170.362C305.169 170.309 304.286 170.433 303.427 170.734C302.605 171.002 301.861 171.433 301.196 172.025C300.531 172.618 299.979 173.357 299.543 174.244C299.106 175.13 298.854 176.15 298.787 177.303C298.721 178.456 298.853 179.498 299.185 180.429C299.517 181.36 299.979 182.158 300.572 182.823C301.165 183.488 301.853 184.019 302.636 184.415C303.457 184.778 304.321 184.986 305.23 185.038ZM327.155 192.143C325.897 192.07 324.839 191.571 323.981 190.645C323.16 189.685 322.785 188.577 322.858 187.319C322.931 186.061 323.429 185.02 324.353 184.197C325.312 183.376 326.421 183.002 327.679 183.075C328.937 183.147 329.977 183.646 330.801 184.57C331.624 185.494 331.999 186.585 331.926 187.843C331.854 189.101 331.354 190.159 330.428 191.017C329.504 191.84 328.413 192.215 327.155 192.143ZM325.154 164.89L325.778 154.092L332.854 154.501L332.23 165.299L330.696 179.094L325.088 178.77L325.154 164.89Z" fill="white"/>
<rect x="48.5703" y="64.957" width="360.832" height="104.502" rx="4.88325" transform="rotate(-10.371 48.5703 64.957)" fill="#099F49"/>
<path d="M78.3253 90.4223L86.5681 88.9137L97.3758 111.837L99.1104 116.107L99.5715 116.022L99.9697 111.362L102.51 91.7151L109.773 90.3859L119.164 107.849L121.119 112.019L121.58 111.935L121.643 107.396L123.228 82.2045L131.471 80.696L128.072 123.972L120.579 125.343L110.483 106.638L108.44 102.306L107.978 102.39L107.601 107.166L104.785 128.234L97.2915 129.605L78.3253 90.4223ZM165.529 110.087C164.644 112.632 163.218 114.819 161.249 116.649C159.319 118.472 156.759 119.675 153.569 120.259C151.418 120.652 149.352 120.653 147.374 120.261C145.428 119.823 143.659 119.054 142.067 117.955C140.476 116.856 139.131 115.474 138.032 113.809C136.964 112.098 136.23 110.147 135.829 107.957C135.457 105.92 135.47 103.932 135.87 101.992C136.262 100.014 136.989 98.233 138.049 96.6489C139.102 95.0264 140.439 93.6499 142.059 92.5195C143.718 91.3819 145.623 90.6163 147.775 90.2224C150.042 89.8075 152.13 89.8226 154.038 90.2676C155.939 90.6742 157.609 91.441 159.046 92.568C160.476 93.6565 161.664 95.0476 162.61 96.7411C163.555 98.4347 164.221 100.338 164.608 102.452C164.657 102.721 164.699 102.951 164.735 103.144C164.738 103.381 164.758 103.596 164.793 103.788C164.79 103.987 164.809 104.202 164.851 104.433L143.582 108.325C143.946 109.45 144.437 110.393 145.052 111.154C145.7 111.869 146.422 112.452 147.219 112.902C148.048 113.306 148.909 113.566 149.804 113.68C150.691 113.756 151.577 113.713 152.461 113.551C154.19 113.235 155.542 112.59 156.516 111.618C157.521 110.6 158.241 109.435 158.676 108.124L165.529 110.087ZM156.665 100.391C156.535 99.8981 156.26 99.3726 155.84 98.814C155.459 98.2484 154.931 97.7493 154.256 97.3168C153.619 96.8773 152.847 96.562 151.938 96.3709C151.068 96.1727 150.056 96.1791 148.903 96.3901C147.289 96.6855 145.952 97.4068 144.891 98.5541C143.83 99.7014 143.201 101.147 143.004 102.891L156.665 100.391ZM172.057 115.922L164.504 74.6506L172.055 73.2687L179.608 114.54L172.057 115.922ZM211.277 101.298C210.483 103.905 209.113 106.182 207.165 108.127C205.249 110.026 202.639 111.278 199.334 111.883C197.143 112.284 195.059 112.288 193.081 111.896C191.134 111.458 189.365 110.689 187.774 109.59C186.221 108.485 184.896 107.099 183.796 105.433C182.729 103.723 181.995 101.772 181.594 99.5815C181.193 97.3911 181.189 95.3069 181.581 93.3287C182.012 91.3435 182.761 89.5781 183.829 88.0325C184.928 86.4413 186.313 85.1154 187.986 84.0548C189.69 82.9487 191.637 82.1952 193.827 81.7943C197.094 81.1965 199.978 81.443 202.481 82.5338C204.984 83.6246 206.973 85.2663 208.446 87.4589L202.057 91.6069C201.164 90.4199 200.14 89.5947 198.983 89.1313C197.857 88.6225 196.525 88.5087 194.988 88.79C193.989 88.9729 193.083 89.3373 192.269 89.8834C191.456 90.4294 190.767 91.1115 190.201 91.9298C189.675 92.7411 189.311 93.6814 189.109 94.7509C188.908 95.8203 188.92 96.9699 189.145 98.1996C189.37 99.4293 189.766 100.509 190.333 101.437C190.9 102.366 191.574 103.117 192.353 103.689C193.172 104.254 194.058 104.648 195.012 104.87C195.966 105.093 196.943 105.113 197.942 104.93C199.518 104.641 200.78 104.053 201.729 103.164C202.71 102.23 203.404 101.031 203.811 99.5664L211.277 101.298ZM224.956 76.0974C227.146 75.6965 229.215 75.7151 231.162 76.1531C233.14 76.5457 234.905 77.2949 236.458 78.4007C238.042 79.4611 239.368 80.8468 240.436 82.5577C241.542 84.2616 242.295 86.2087 242.696 88.3991C243.097 90.5895 243.082 92.6773 242.651 94.6625C242.258 96.6406 241.513 98.4252 240.414 100.016C239.346 101.562 237.961 102.888 236.257 103.994C234.584 105.055 232.653 105.785 230.463 106.186C228.272 106.587 226.188 106.591 224.21 106.199C222.263 105.761 220.498 105.012 218.913 103.951C217.361 102.845 216.031 101.44 214.925 99.7366C213.858 98.0256 213.123 96.075 212.722 93.8846C212.322 91.6942 212.317 89.61 212.71 87.6318C213.141 85.6466 213.89 83.8812 214.958 82.3355C216.056 80.7444 217.442 79.4185 219.115 78.3579C220.818 77.2517 222.766 76.4983 224.956 76.0974ZM229.186 99.2117C230.147 99.0359 231.037 98.6942 231.858 98.1866C232.71 97.6335 233.418 96.9478 233.984 96.1295C234.549 95.3112 234.932 94.3674 235.133 93.2979C235.373 92.2214 235.377 91.0491 235.145 89.781C234.913 88.5129 234.494 87.418 233.889 86.4962C233.321 85.5674 232.629 84.8205 231.81 84.2554C230.992 83.6902 230.09 83.3192 229.105 83.1421C228.15 82.9196 227.193 82.8962 226.232 83.072C225.233 83.2549 224.327 83.6193 223.513 84.1653C222.693 84.6729 222 85.3359 221.435 86.1542C220.87 86.9725 220.467 87.9199 220.227 88.9963C220.026 90.0658 220.041 91.2346 220.273 92.5027C220.506 93.7708 220.905 94.8693 221.472 95.7981C222.078 96.7198 222.79 97.4632 223.608 98.0284C224.426 98.5935 225.313 98.9873 226.267 99.2098C227.214 99.3939 228.187 99.3945 229.186 99.2117ZM244.4 73.492L251.49 72.1944L252.165 75.8835L252.627 75.7991C253.257 74.254 254.245 72.9215 255.589 71.8019C256.971 70.6751 258.584 69.943 260.429 69.6054C262.581 69.2116 264.478 69.3806 266.122 70.1125C267.765 70.8444 269.027 71.8842 269.909 73.2319C270.533 71.6483 271.56 70.2093 272.991 68.9148C274.415 67.5819 276.28 66.7044 278.586 66.2825C280.315 65.966 281.867 65.9799 283.24 66.3243C284.607 66.6302 285.785 67.2088 286.775 68.0603C287.803 68.9047 288.659 69.9991 289.342 71.3436C290.018 72.6496 290.507 74.1288 290.809 75.7812L294.069 93.5925L286.518 94.9744L283.511 78.5466C282.808 74.7038 280.881 73.0707 277.73 73.6474C276.731 73.8303 275.889 74.2226 275.205 74.8244C274.514 75.3877 273.969 76.1029 273.572 76.9699C273.206 77.7915 272.964 78.7492 272.847 79.843C272.768 80.9298 272.837 82.0688 273.055 83.26L275.566 96.9788L268.015 98.3607L265.008 81.9328C264.305 78.09 262.301 76.4711 258.996 77.0759C258.036 77.2517 257.232 77.637 256.587 78.2317C255.934 78.7881 255.428 79.4962 255.069 80.3562C254.703 81.1777 254.481 82.1319 254.401 83.2187C254.322 84.3055 254.392 85.4445 254.61 86.6357L257.12 100.354L249.569 101.736L244.4 73.492ZM325.788 80.758C324.904 83.3027 323.477 85.49 321.508 87.3197C319.578 89.1424 317.018 90.3456 313.829 90.9293C311.677 91.3232 309.612 91.3238 307.634 90.9312C305.687 90.4932 303.918 89.7248 302.327 88.626C300.736 87.5271 299.391 86.145 298.292 84.4796C297.224 82.7686 296.49 80.818 296.089 78.6276C295.716 76.5909 295.73 74.6027 296.129 72.663C296.522 70.6849 297.248 68.9037 298.309 67.3197C299.362 65.6972 300.699 64.3207 302.319 63.1902C303.977 62.0526 305.882 61.287 308.034 60.8931C310.301 60.4782 312.389 60.4933 314.298 60.9383C316.199 61.3449 317.868 62.1117 319.306 63.2387C320.736 64.3272 321.924 65.7183 322.869 67.4119C323.815 69.1054 324.481 71.009 324.867 73.1225C324.917 73.3915 324.959 73.6221 324.994 73.8142C324.998 74.0518 325.017 74.2667 325.052 74.4588C325.049 74.658 325.069 74.8729 325.111 75.1034L303.841 78.996C304.206 80.1207 304.696 81.0636 305.312 81.8246C305.959 82.5402 306.681 83.1229 307.479 83.5727C308.307 83.9771 309.169 84.2364 310.063 84.3507C310.951 84.4265 311.837 84.3835 312.721 84.2218C314.45 83.9053 315.801 83.2608 316.775 82.2883C317.78 81.2704 318.5 80.106 318.936 78.7952L325.788 80.758ZM316.925 71.0614C316.795 70.5689 316.52 70.0433 316.1 69.4847C315.718 68.9191 315.19 68.4201 314.515 67.9876C313.879 67.548 313.106 67.2327 312.198 67.0416C311.327 66.8434 310.316 66.8498 309.163 67.0608C307.549 67.3562 306.212 68.0775 305.151 69.2248C304.09 70.3721 303.461 71.8177 303.264 73.5615L316.925 71.0614ZM344.107 61.9166L339.15 62.8238L337.969 56.368L342.926 55.4607L341.343 46.8145L348.894 45.4326L350.477 54.0788L357.394 52.8129L358.575 59.2688L351.658 60.5347L353.663 71.4866C353.782 72.1399 353.952 72.7442 354.173 73.2995C354.425 73.8093 354.779 74.2212 355.233 74.5352C355.884 75.0516 356.709 75.2183 357.708 75.0355C358.361 74.9159 358.869 74.7634 359.232 74.5777C359.589 74.3537 359.918 74.0948 360.222 73.8009L363.568 80.0394C362.761 80.6238 361.857 81.1071 360.855 81.4891C359.898 81.9025 358.804 82.2217 357.575 82.4468C356.153 82.707 354.827 82.7312 353.597 82.5195C352.398 82.2623 351.344 81.8198 350.435 81.1919C348.312 79.7932 346.959 77.4991 346.375 74.3096L344.107 61.9166ZM375.871 48.4782C378.062 48.0773 380.13 48.0959 382.077 48.5339C384.055 48.9265 385.82 49.6757 387.373 50.7816C388.957 51.842 390.283 53.2276 391.351 54.9385C392.457 56.6424 393.21 58.5895 393.611 60.7799C394.012 62.9703 393.997 65.0581 393.566 67.0433C393.174 69.0214 392.428 70.8061 391.329 72.3972C390.262 73.9428 388.876 75.2687 387.172 76.3748C385.5 77.4355 383.568 78.1663 381.378 78.5671C379.187 78.968 377.103 78.9722 375.125 78.5796C373.178 78.1416 371.413 77.3924 369.829 76.332C368.276 75.2261 366.947 73.8212 365.84 72.1174C364.773 70.4065 364.039 68.4558 363.638 66.2654C363.237 64.075 363.233 61.9908 363.625 60.0126C364.056 58.0274 364.805 56.262 365.873 54.7164C366.972 53.1252 368.357 51.7994 370.03 50.7387C371.734 49.6326 373.681 48.8791 375.871 48.4782ZM380.101 71.5925C381.062 71.4167 381.953 71.075 382.773 70.5674C383.625 70.0143 384.334 69.3286 384.899 68.5103C385.464 67.6921 385.847 66.7482 386.049 65.6787C386.288 64.6023 386.292 63.43 386.06 62.1618C385.828 60.8937 385.409 59.7988 384.804 58.877C384.237 57.9482 383.544 57.2013 382.726 56.6362C381.907 56.0711 381.005 55.7 380.02 55.5229C379.066 55.3004 378.108 55.277 377.148 55.4528C376.148 55.6357 375.242 56.0001 374.429 56.5462C373.608 57.0538 372.915 57.7167 372.35 58.535C371.785 59.3533 371.383 60.3007 371.143 61.3772C370.941 62.4466 370.957 63.6154 371.189 64.8835C371.421 66.1516 371.82 67.2501 372.388 68.1789C372.993 69.1006 373.705 69.8441 374.523 70.4092C375.342 70.9743 376.228 71.3681 377.182 71.5906C378.129 71.7747 379.102 71.7753 380.101 71.5925Z" fill="white"/>
<path d="M22.9479 42.2891C21.5485 50.1824 20.3726 54.8746 17.1461 57.7919C13.9196 60.7091 8.72999 61.7723 0 63.0377C8.72999 64.303 13.9196 65.3662 17.1461 68.2923C20.3726 71.2095 21.5485 75.9018 22.9479 83.8012C24.3474 75.9018 25.5233 71.2095 28.7498 68.2835C31.986 65.3662 37.1756 64.303 45.9124 63.0377C37.1756 61.7723 31.986 60.7091 28.7595 57.7919C25.5233 54.8746 24.3474 50.1824 22.9479 42.2891Z" fill="#DC3535"/>
<path d="M472.596 193.987L472.595 193.987C470.924 195.503 469.796 197.467 468.912 200.029C468.178 202.153 467.607 204.702 467.034 207.768C466.46 204.702 465.889 202.153 465.156 200.03C464.272 197.47 463.144 195.508 461.472 193.996C459.802 192.482 457.64 191.464 454.82 190.667C452.533 190.02 449.796 189.513 446.512 189.006C449.796 188.5 452.533 187.993 454.82 187.347C457.64 186.551 459.802 185.536 461.472 184.026C463.144 182.514 464.272 180.552 465.156 177.992C465.889 175.87 466.46 173.322 467.034 170.258C467.607 173.322 468.179 175.87 468.913 177.992C469.799 180.552 470.929 182.514 472.606 184.026C474.275 185.536 476.437 186.551 479.258 187.347C481.546 187.993 484.285 188.5 487.571 189.006C484.284 189.513 481.546 190.02 479.257 190.666C476.435 191.462 474.271 192.477 472.596 193.987Z" fill="#15BA5C" stroke="white" stroke-width="0.715349"/>
</svg>
