<svg width="57" height="55" viewBox="0 0 57 55" fill="none" xmlns="http://www.w3.org/2000/svg">
<path d="M45.2797 54.7383H11.7203C5.24739 54.7383 0 49.699 0 43.4828V11.2545C0 5.04 5.24739 0.000743866 11.7203 0.000743866H45.2797C51.7526 0.000743866 57 5.04 57 11.2545V43.4828C57 49.699 51.7526 54.7383 45.2797 54.7383Z" fill="#15BA5C"/>
<path d="M26.2808 46.3281H38.0849C44.3835 46.3281 48.5216 40.0102 45.7919 34.5573L42.3546 27.6878C42.2572 27.4908 42.2572 27.2626 42.3546 27.0657L45.7919 20.1978C48.5216 14.7449 44.3835 8.42533 38.0849 8.42533H26.2808C25.1681 8.42533 24.2656 9.29202 24.2656 10.3606V44.3929C24.2656 45.4614 25.1681 46.3281 26.2808 46.3281Z" fill="white"/>
<path d="M19.0599 12.8995V41.9286C19.0599 44.1922 17.149 46.0273 14.7937 46.0273C12.3323 46.0273 10.3359 44.1118 10.3359 41.7481V12.8995C10.3359 10.5867 12.2896 8.71054 14.6979 8.71054C17.108 8.71054 19.0599 10.5867 19.0599 12.8995Z" fill="white"/>
</svg>
