<svg width="180" height="180" viewBox="0 0 338 312" fill="none" xmlns="http://www.w3.org/2000/svg">
<ellipse cx="185.911" cy="181.398" rx="129.395" ry="130.605" fill="#01913B"/>
<circle cx="169.615" cy="181.146" r="128.443" fill="#15BA5C"/>
<path d="M105.398 165.498L128.988 212.678C130.843 216.388 135.624 217.481 138.906 214.945L233.842 141.621" stroke="white" stroke-width="24.7006" stroke-linecap="round"/>
<path d="M220.735 4.82C221.228 3.30287 223.374 3.30287 223.867 4.82L225.998 11.3785C226.219 12.057 226.851 12.5163 227.565 12.5163L234.461 12.5163C236.056 12.5163 236.719 14.5576 235.428 15.4953L229.849 19.5486C229.272 19.9679 229.031 20.7112 229.251 21.3897L231.382 27.9482C231.875 29.4653 230.139 30.7269 228.848 29.7893L223.269 25.7359C222.692 25.3166 221.911 25.3166 221.333 25.7359L215.754 29.7893C214.464 30.7269 212.727 29.4653 213.22 27.9482L215.351 21.3897C215.572 20.7112 215.33 19.9679 214.753 19.5486L209.174 15.4953C207.884 14.5576 208.547 12.5163 210.142 12.5163L217.038 12.5163C217.751 12.5163 218.384 12.057 218.604 11.3785L220.735 4.82Z" fill="#15BA5C"/>
<path d="M250.367 34.4567C250.86 32.9396 253.006 32.9396 253.499 34.4567L254.151 36.4638C254.372 37.1423 255.004 37.6017 255.718 37.6017H257.828C259.423 37.6017 260.086 39.6429 258.796 40.5806L257.089 41.821C256.511 42.2404 256.27 42.9836 256.49 43.6621L257.142 45.6692C257.635 47.1863 255.899 48.4479 254.608 47.5103L252.901 46.2698C252.324 45.8505 251.542 45.8505 250.965 46.2698L249.258 47.5103C247.967 48.4479 246.231 47.1863 246.724 45.6692L247.376 43.6621C247.597 42.9836 247.355 42.2404 246.778 41.821L245.071 40.5806C243.78 39.6429 244.443 37.6017 246.038 37.6017H248.149C248.862 37.6017 249.495 37.1423 249.715 36.4638L250.367 34.4567Z" fill="#C2EBD3"/>
<path d="M19.8368 258.414C20.3297 256.897 22.476 256.897 22.969 258.414L25.1 264.972C25.3204 265.651 25.9527 266.11 26.6661 266.11L33.5621 266.11C35.1573 266.11 35.8205 268.151 34.53 269.089L28.951 273.142C28.3739 273.562 28.1324 274.305 28.3528 274.983L30.4838 281.542C30.9767 283.059 29.2403 284.321 27.9498 283.383L22.3708 279.33C21.7936 278.91 21.0121 278.91 20.435 279.33L14.856 283.383C13.5654 284.321 11.829 283.059 12.322 281.542L14.4529 274.983C14.6734 274.305 14.4319 273.562 13.8547 273.142L8.27575 269.089C6.9852 268.151 7.64846 266.11 9.24367 266.11L16.1397 266.11C16.8531 266.11 17.4853 265.651 17.7058 264.972L19.8368 258.414Z" fill="#15BA5C"/>
<circle cx="321.101" cy="60.9328" r="6.58684" stroke="#15BA5C" stroke-width="3.29342"/>
<circle cx="329.343" cy="286.534" r="8.23355" fill="#C2EBD3"/>
<circle cx="3.29342" cy="158.082" r="3.29342" fill="#15BA5C"/>
</svg>
