<svg width="20" height="20" viewBox="0 0 32 33" fill="none" xmlns="http://www.w3.org/2000/svg">
<path d="M6.83208 13.8906C5.39475 13.8906 4.21875 15.0666 4.21875 16.504C4.21875 17.9413 5.39475 19.1173 6.83208 19.1173C8.26942 19.1173 9.44542 17.9413 9.44542 16.504C9.44542 15.0666 8.26942 13.8906 6.83208 13.8906Z" fill="black" stroke="black" stroke-width="1.568"/>
<path d="M25.129 13.8906C23.6916 13.8906 22.5156 15.0666 22.5156 16.504C22.5156 17.9413 23.6916 19.1173 25.129 19.1173C26.5663 19.1173 27.7423 17.9413 27.7423 16.504C27.7423 15.0666 26.5663 13.8906 25.129 13.8906Z" fill="black" stroke="black" stroke-width="1.568"/>
<path d="M15.9727 13.8906C14.5354 13.8906 13.3594 15.0666 13.3594 16.504C13.3594 17.9413 14.5354 19.1173 15.9727 19.1173C17.41 19.1173 18.586 17.9413 18.586 16.504C18.586 15.0666 17.41 13.8906 15.9727 13.8906Z" fill="black" stroke="black" stroke-width="1.568"/>
</svg>
