<svg width="14" height="14" viewBox="0 0 19 20" fill="none" xmlns="http://www.w3.org/2000/svg">
<path fill-rule="evenodd" clip-rule="evenodd" d="M9.88879 12.5349L16.0265 18.7463C16.3522 19.0758 16.7939 19.2609 17.2545 19.2609C17.7151 19.2609 18.1569 19.0758 18.4825 18.7463C18.8082 18.4167 18.9912 17.9698 18.9912 17.5038C18.9912 17.0377 18.8082 16.5908 18.4825 16.2613L12.3425 10.0511L18.4814 3.84099C18.6426 3.67782 18.7704 3.48413 18.8576 3.27097C18.9448 3.05781 18.9897 2.82936 18.9896 2.59866C18.9896 2.36796 18.9446 2.13954 18.8573 1.92642C18.77 1.7133 18.6421 1.51967 18.4808 1.35658C18.3195 1.19349 18.1281 1.06414 17.9174 0.975903C17.7068 0.887668 17.481 0.842283 17.253 0.842337C17.025 0.842391 16.7992 0.887885 16.5886 0.976219C16.3779 1.06455 16.1866 1.194 16.0254 1.35717L9.88879 7.5673L3.75106 1.35717C3.59099 1.18932 3.39948 1.05541 3.18771 0.963249C2.97594 0.871088 2.74815 0.822522 2.51763 0.820386C2.28712 0.81825 2.05849 0.862586 1.84509 0.950807C1.63168 1.03903 1.43778 1.16937 1.2747 1.33422C1.11161 1.49907 0.982612 1.69514 0.895218 1.91097C0.807825 2.12681 0.76379 2.3581 0.765684 2.59133C0.767577 2.82457 0.815361 3.05509 0.906248 3.26945C0.997135 3.4838 1.1293 3.6777 1.29504 3.83982L7.43509 10.0511L1.2962 16.2613C0.970512 16.5908 0.787542 17.0377 0.787542 17.5038C0.787542 17.9698 0.970512 18.4167 1.2962 18.7463C1.62189 19.0758 2.06362 19.2609 2.52421 19.2609C2.9848 19.2609 3.42653 19.0758 3.75222 18.7463L9.88879 12.5338V12.5349Z" fill="#737373"/>
</svg>
